<?xml version="1.0" encoding="UTF-8"?>
<svg xmlns="http://www.w3.org/2000/svg" xmlns:xlink="http://www.w3.org/1999/xlink" viewBox="0 0 50 50" width="50px" height="50px">
<g id="surface4356597">
<path style=" stroke:none;fill-rule:nonzero;fill:rgb(80.000001%,80.000001%,80.000001%);fill-opacity:1;" d="M 25 50 C 11.191406 50 0 38.808594 0 25 C 0 11.191406 11.191406 0 25 0 C 38.808594 0 50 11.191406 50 25 C 50 38.808594 38.808594 50 25 50 Z M 25 50 "/>
<path style=" stroke:none;fill-rule:nonzero;fill:rgb(0%,0%,0%);fill-opacity:1;" d="M 24.722656 3.609375 C 24.164062 3.609375 23.609375 3.609375 23.050781 3.703125 L 22.863281 3.703125 C 22.398438 3.703125 21.933594 3.796875 21.46875 3.890625 C 21.003906 3.984375 20.445312 4.074219 19.980469 4.167969 L 19.886719 4.167969 C 18.867188 4.445312 18.027344 4.726562 17.191406 5.191406 C 16.355469 5.5625 15.609375 6.121094 14.867188 6.679688 C 14.492188 6.957031 14.214844 7.238281 13.84375 7.609375 C 12.632812 8.910156 11.703125 10.398438 11.054688 12.257812 C 10.867188 12.726562 10.773438 13.191406 10.679688 13.65625 C 10.589844 14.121094 10.496094 14.492188 10.402344 14.957031 C 10.308594 15.234375 10.308594 15.511719 10.308594 15.792969 C 10.308594 16.070312 10.214844 16.257812 10.214844 16.539062 C 10.125 17.003906 10.125 17.558594 10.125 18.117188 C 10.125 18.582031 10.214844 19.234375 10.308594 19.792969 C 10.402344 20.445312 10.589844 21.28125 10.679688 22.023438 C 10.867188 22.675781 10.960938 23.328125 11.144531 23.976562 C 11.144531 24.070312 11.144531 24.164062 11.238281 24.253906 C 11.332031 24.628906 11.519531 25.09375 11.609375 25.464844 C 11.332031 25.742188 11.054688 25.835938 10.773438 26.210938 C 10.308594 26.859375 10.03125 27.882812 10.125 29 C 10.496094 32.347656 12.636719 33.554688 13.285156 33.835938 C 13.566406 35.414062 14.308594 37.277344 15.703125 39.230469 C 17.097656 41.367188 19.050781 43.320312 21.46875 44.53125 L 21.5625 44.621094 C 22.398438 45.644531 23.609375 46.390625 25.097656 46.390625 C 26.585938 46.390625 27.699219 45.644531 28.628906 44.621094 L 28.722656 44.53125 C 31.046875 43.414062 33 41.367188 34.394531 39.230469 C 35.699219 37.277344 36.441406 35.324219 36.722656 33.835938 C 37.371094 33.554688 39.511719 32.347656 39.976562 29 C 40.070312 27.882812 39.789062 26.859375 39.324219 26.210938 C 39.046875 25.835938 38.765625 25.652344 38.488281 25.464844 C 38.675781 25 38.859375 24.441406 38.953125 23.789062 L 38.953125 23.699219 C 38.953125 23.605469 38.953125 23.605469 39.046875 23.511719 C 39.230469 22.863281 39.324219 22.210938 39.417969 21.558594 C 39.605469 20.816406 39.699219 20.070312 39.789062 19.421875 C 39.789062 19.234375 39.789062 19.046875 39.882812 18.769531 C 39.882812 18.398438 39.976562 18.023438 39.976562 17.652344 L 39.976562 15.605469 C 39.976562 15.421875 39.882812 15.140625 39.882812 14.863281 C 39.882812 14.769531 39.882812 14.582031 39.789062 14.492188 C 39.699219 14.398438 39.792969 14.210938 39.699219 14.121094 C 39.699219 14.027344 39.695312 13.933594 39.605469 13.839844 C 39.605469 13.652344 39.511719 13.5625 39.511719 13.375 C 39.511719 13.28125 39.417969 13.1875 39.417969 13.09375 C 39.324219 12.910156 39.328125 12.722656 39.234375 12.628906 C 39.234375 12.539062 39.140625 12.445312 39.140625 12.351562 C 39.046875 12.167969 39.046875 12.074219 38.953125 11.886719 C 38.859375 11.609375 38.765625 11.421875 38.582031 11.144531 C 38.488281 11.050781 38.488281 10.957031 38.394531 10.863281 C 38.304688 10.773438 38.210938 10.585938 38.117188 10.492188 C 38.023438 10.398438 38.023438 10.304688 37.929688 10.210938 C 37.835938 10.121094 37.742188 9.933594 37.652344 9.839844 L 37.09375 9.28125 L 36.8125 9.003906 C 36.628906 8.820312 36.441406 8.632812 36.164062 8.539062 C 35.234375 7.890625 34.117188 7.421875 32.816406 7.328125 C 32.535156 6.957031 32.164062 6.492188 31.605469 6.027344 C 31.421875 5.839844 31.140625 5.65625 30.863281 5.46875 C 30.863281 5.46875 30.769531 5.46875 30.769531 5.378906 C 30.769531 5.378906 30.675781 5.378906 30.675781 5.285156 C 30.398438 5.097656 30.117188 4.914062 29.839844 4.820312 C 28.910156 4.355469 27.792969 3.886719 26.304688 3.703125 L 25.933594 3.703125 C 25.65625 3.609375 25.1875 3.609375 24.722656 3.609375 Z M 31.976562 15.140625 C 32.910156 16.628906 34.304688 19.328125 34.304688 22.210938 C 34.304688 23.789062 34.953125 26.300781 37 26.582031 C 37.1875 26.671875 37.464844 26.953125 37.652344 27.230469 C 37.929688 27.605469 38.117188 28.070312 38.023438 28.8125 C 37.652344 31.789062 35.605469 32.347656 35.605469 32.347656 C 35.234375 32.441406 35.046875 32.8125 34.953125 33.089844 C 34.859375 34.113281 34.023438 36.160156 32.816406 38.113281 C 31.605469 40.066406 29.746094 41.925781 27.792969 42.855469 C 27.609375 42.949219 27.515625 43.042969 27.421875 43.136719 C 26.863281 44.066406 25.933594 44.53125 25.003906 44.53125 C 24.074219 44.53125 23.144531 44.0625 22.679688 43.320312 C 22.585938 43.226562 22.492188 43.042969 22.304688 43.042969 C 20.351562 42.113281 18.585938 40.253906 17.285156 38.300781 C 15.980469 36.347656 15.144531 34.300781 15.054688 33.277344 C 15.054688 32.90625 14.773438 32.625 14.402344 32.53125 C 14.402344 32.53125 12.355469 31.882812 11.984375 28.90625 C 11.890625 28.160156 12.078125 27.695312 12.355469 27.324219 C 12.449219 27.140625 12.636719 27.046875 12.726562 26.953125 L 13.007812 26.953125 C 14.867188 26.953125 15.515625 23.882812 15.796875 22.300781 C 16.355469 19.417969 19.609375 18.582031 24.167969 18.582031 C 28.445312 18.488281 30.863281 16.445312 31.976562 15.140625 Z M 19.886719 26.859375 C 19.117188 26.859375 18.492188 27.484375 18.492188 28.253906 C 18.492188 29.027344 19.117188 29.648438 19.886719 29.648438 C 20.660156 29.648438 21.285156 29.027344 21.285156 28.253906 C 21.285156 27.484375 20.660156 26.859375 19.886719 26.859375 Z M 30.117188 26.859375 C 29.347656 26.859375 28.722656 27.484375 28.722656 28.253906 C 28.722656 29.027344 29.347656 29.648438 30.117188 29.648438 C 30.890625 29.648438 31.511719 29.027344 31.511719 28.253906 C 31.511719 27.484375 30.890625 26.859375 30.117188 26.859375 Z M 30.117188 26.859375 "/>
</g>
</svg>
