<?xml version="1.0" standalone="no"?>
<!DOCTYPE svg PUBLIC "-//W3C//DTD SVG 20010904//EN"
 "http://www.w3.org/TR/2001/REC-SVG-20010904/DTD/svg10.dtd">
<svg version="1.0" xmlns="http://www.w3.org/2000/svg"
 width="438.000000pt" height="438.000000pt" viewBox="0 0 438.000000 438.000000"
 preserveAspectRatio="xMidYMid meet">

<g transform="translate(0.000000,438.000000) scale(0.100000,-0.100000)"
fill="#000000" stroke="none">
<path d="M1990 4369 c-555 -49 -1118 -343 -1471 -770 -302 -364 -472 -782
-510 -1257 -26 -325 34 -686 167 -1002 44 -105 150 -304 190 -357 l21 -27 33
38 c98 111 198 191 300 238 264 121 716 293 885 336 77 19 148 41 157 50 10 8
26 38 37 65 10 28 23 53 28 54 5 2 36 -27 69 -64 32 -37 84 -92 114 -123 107
-108 113 -118 106 -179 -4 -29 -10 -61 -15 -70 -5 -9 -11 -44 -15 -78 -7 -61
-6 -62 22 -77 16 -8 39 -35 53 -60 13 -25 27 -46 30 -46 4 0 14 10 22 23 16
24 74 84 128 133 50 45 107 118 136 172 24 46 103 151 150 202 19 19 23 33 19
60 -2 19 -2 27 0 18 6 -20 13 -22 32 -9 11 6 8 12 -10 27 -41 32 -42 42 -9 80
17 19 37 49 45 67 8 18 35 52 60 77 25 25 45 51 46 58 0 6 4 12 8 12 5 0 17
26 28 58 10 31 25 66 32 77 12 18 13 16 8 -20 -3 -22 -9 -83 -12 -135 -6 -90
-4 -98 24 -160 16 -36 33 -84 37 -107 6 -36 17 -52 66 -97 33 -29 117 -88 187
-131 168 -104 596 -387 699 -464 l83 -61 30 42 c45 62 124 203 175 310 205
441 255 958 139 1437 -76 308 -226 613 -426 859 -455 561 -1175 865 -1898 801z
m828 -813 c45 -25 62 -55 69 -120 4 -42 2 -61 -9 -74 -17 -18 -16 -48 1 -65 6
-6 11 -21 11 -34 0 -12 6 -26 13 -30 31 -19 50 -69 43 -116 -10 -69 -56 -92
-56 -29 0 34 -55 87 -107 102 -21 6 -101 13 -178 16 -110 5 -151 2 -190 -10
-76 -24 -207 -15 -269 18 -27 14 -56 26 -65 26 -17 1 -46 23 -69 52 -11 14
-10 23 7 57 12 23 30 59 41 81 11 22 27 40 35 40 7 0 16 8 19 18 4 10 37 34
76 53 l69 34 263 0 c236 0 266 -2 296 -19z m-512 -494 c7 -4 19 -24 27 -44 20
-47 60 -88 86 -88 11 0 46 -16 79 -36 79 -47 151 -55 209 -25 27 13 43 28 45
43 3 20 10 23 48 26 37 2 50 9 72 35 32 38 40 33 69 -44 43 -111 46 -166 13
-214 -8 -11 -14 -26 -14 -33 0 -27 -32 -81 -51 -87 -11 -4 -31 -17 -46 -31
-14 -13 -28 -22 -30 -20 -3 3 -26 -2 -51 -10 -26 -7 -56 -14 -68 -14 -35 0
-82 29 -120 76 -20 24 -43 44 -50 44 -8 0 -14 5 -14 10 0 6 -7 10 -16 10 -13
0 -14 -3 -5 -14 16 -20 81 -152 81 -165 0 -14 -111 -6 -140 9 -24 13 -26 52
-4 85 9 14 14 31 11 39 -7 18 -102 50 -128 43 -10 -3 -22 -1 -25 4 -3 5 -16 9
-29 9 -13 0 -42 12 -65 27 -33 22 -40 32 -35 48 4 11 11 49 16 84 5 35 12 68
17 75 5 6 17 35 26 65 29 89 56 117 92 93z m-303 -248 c32 -10 39 -39 22 -98
-20 -67 -43 -90 -83 -82 -42 10 -98 69 -110 117 -9 36 -8 43 10 61 17 17 28
19 81 13 34 -3 70 -9 80 -11z m1216 -81 c6 -21 18 -48 26 -61 22 -30 6 -108
-45 -218 -41 -90 -67 -114 -121 -114 -84 0 -130 70 -94 140 9 18 18 60 20 93
4 63 21 117 36 117 4 0 13 -19 19 -41 9 -32 9 -44 0 -49 -7 -4 -10 -16 -8 -26
3 -15 8 -12 22 16 10 19 20 37 22 39 1 1 19 -9 38 -24 l36 -27 0 54 c0 42 -5
59 -20 73 -26 24 -25 44 3 55 43 17 56 12 66 -27z m-781 -285 c4 -21 -16 -23
-52 -7 -33 15 -23 31 17 27 21 -2 33 -9 35 -20z m402 -92 c0 -16 -7 -27 -20
-31 -11 -3 -20 -13 -20 -21 0 -8 -9 -14 -19 -14 -19 0 -19 1 2 39 12 22 25 37
29 35 5 -3 8 0 8 5 0 6 5 11 10 11 6 0 10 -11 10 -24z m-180 5 c0 -5 3 -22 6
-38 5 -27 3 -32 -25 -41 -37 -13 -41 -8 -34 46 5 36 9 42 29 42 13 0 24 -4 24
-9z m-263 -22 c7 -7 35 -15 64 -20 40 -6 58 -16 80 -40 34 -38 34 -37 13 -79
-15 -29 -15 -35 -1 -64 19 -40 10 -58 -47 -91 -45 -26 -80 -32 -91 -15 -3 6
-23 10 -44 10 -21 0 -60 7 -87 15 -27 8 -60 15 -74 15 -48 0 -69 49 -30 70 11
6 71 14 134 19 63 5 119 11 124 15 16 10 -9 66 -40 89 -15 11 -25 24 -22 28 9
15 -37 30 -118 37 -72 6 -78 7 -43 13 70 11 170 10 182 -2z"/>
<path d="M3180 2490 c0 -5 5 -10 10 -10 6 0 10 5 10 10 0 6 -4 10 -10 10 -5 0
-10 -4 -10 -10z"/>
<path d="M3130 2480 c-12 -8 -10 -10 8 -10 13 0 20 4 17 10 -7 12 -6 12 -25 0z"/>
<path d="M2660 1720 c0 -5 5 -10 10 -10 6 0 10 5 10 10 0 6 -4 10 -10 10 -5 0
-10 -4 -10 -10z"/>
</g>
</svg>
